<svg width="972" height="324" viewBox="0 0 972 324" fill="none" xmlns="http://www.w3.org/2000/svg">
<path d="M205.76 319.694L183.807 245.224H71.887L49.9335 319.694H0L96.3568 0H158.997L255.694 319.694H205.76ZM84.8007 202.178H170.893L127.846 56.2513L84.8007 202.178Z" fill="white"/>
<path d="M280.782 319.691V87.2417H448.663V319.691H401.312V130.288H328.133V319.691H280.782Z" fill="white"/>
<path d="M691.84 319.691V87.2417H971.64V319.691H924.289V130.288H855.415V319.691H808.064V130.288H739.191V319.691H691.84Z" fill="white"/>
<path d="M486.31 87.2417H654.189V319.691H606.839V307.638C594.785 317.97 578.428 323.996 559.488 323.996C514.719 323.996 486.31 291.712 486.31 240.917C486.31 190.983 514.719 159.56 559.488 159.56C578.428 159.56 594.785 165.156 606.839 175.486V128.135H486.31V87.2417ZM572.401 280.949C596.507 280.949 611.573 265.453 611.142 240.917C610.713 216.381 595.647 200.453 572.401 200.453C548.727 200.453 533.659 216.381 533.659 240.917C533.659 265.453 548.727 280.949 572.401 280.949Z" fill="white"/>
</svg>
