<svg width="1451" height="484" viewBox="0 0 1451 484" fill="none" xmlns="http://www.w3.org/2000/svg">
<path d="M307.272 477.574L274.488 366.328H107.353L74.5683 477.574H0L144.842 0H236.355L381.841 477.574H307.272ZM126.637 302.023H255.203L190.92 84.0309L126.637 302.023Z" fill="black"/>
<path d="M419.307 477.569V130.326H670.011V477.569H599.299V194.631H490.018V477.569H419.307Z" fill="black"/>
<path d="M1033.16 477.569V130.326H1451V477.569H1380.29V194.631H1277.44V477.569H1206.72V194.631H1103.87V477.569H1033.16Z" fill="black"/>
<path d="M726.231 130.326H976.934V477.569H906.224V459.565C888.224 474.998 863.796 484 835.512 484C768.657 484 726.231 435.773 726.231 359.893C726.231 285.299 768.657 238.358 835.512 238.358C863.796 238.358 888.224 246.717 906.224 262.149V191.414H726.231V130.326ZM854.796 419.695C890.795 419.695 913.294 396.546 912.651 359.893C912.009 323.239 889.51 299.446 854.796 299.446C819.442 299.446 796.941 323.239 796.941 359.893C796.941 396.546 819.442 419.695 854.796 419.695Z" fill="black"/>
</svg>
